<svg width="99" height="78" viewBox="0 0 99 78" fill="none" xmlns="http://www.w3.org/2000/svg">
<mask id="mask0_20_2" style="mask-type:alpha" maskUnits="userSpaceOnUse" x="49" y="5" width="30" height="42">
<rect x="49.9767" y="5.49927" width="28.8011" height="40.0509" transform="rotate(1.24383 49.9767 5.49927)" fill="#D9D9D9"/>
</mask>
<g mask="url(#mask0_20_2)">
<path d="M27.6936 21.3958L27.5959 20.6586L29.4675 19.1781L29.8135 20.0766C32.2566 26.4224 38.4448 30.9017 45.5787 31.4882C48.0255 31.6893 50.4513 31.4315 52.7888 30.7217C55.0702 30.0291 57.1592 28.9405 58.9978 27.4861C60.4882 26.307 61.7622 24.9237 62.7852 23.3739C63.4919 22.3021 64.0641 21.1591 64.4865 19.9762L64.7443 19.254L64.2288 18.6674C64.2288 18.6673 65.6239 20.2548 65.6239 20.2548L65.571 20.8157C65.1172 25.6253 62.7169 29.975 58.8122 33.0637C54.9078 36.1521 49.9657 37.6101 44.8978 37.1685C40.5418 36.789 36.4222 34.9824 33.2978 32.0815C30.2181 29.2221 28.2279 25.4272 27.6936 21.3958Z" fill="#EEBF00"/>
<path d="M64.4864 19.9762C64.064 21.1592 63.4919 22.302 62.7852 23.3738C61.7621 24.9236 60.4881 26.307 58.9986 27.4853C57.1592 28.9404 55.0701 30.0291 52.7888 30.7216C50.4514 31.4313 48.0255 31.6892 45.5787 31.4881C38.4448 30.9016 32.2566 26.4223 29.8134 20.0765L29.4675 19.178L33.3837 16.0802L34.3025 17.1258C40.5237 24.2052 51.6414 25.1738 59.086 19.2851C59.7853 18.732 60.4421 18.1256 61.0384 17.4827L62.1421 16.2928L64.7443 19.254L64.4864 19.9762Z" fill="#FFCD00"/>
</g>
<mask id="mask1_20_2" style="mask-type:alpha" maskUnits="userSpaceOnUse" x="20" y="0" width="27" height="42">
<rect x="20.8896" width="25.1472" height="40.9807" transform="rotate(1.24383 20.8896 0)" fill="#D9D9D9"/>
</mask>
<g mask="url(#mask1_20_2)">
<path d="M24.0773 12.887L26.9739 10.4718L30.4779 14.6742L27.5812 17.0894L24.0773 12.887Z" fill="#DDB200"/>
<path d="M21.1806 15.3023L24.0772 12.8871L27.5811 17.0895L24.6845 19.5047L21.1806 15.3023Z" fill="#CCA400"/>
<path d="M24.7814 20.2813L24.6846 19.5047L26.5579 17.9427L26.9028 18.889C29.3387 25.572 35.5218 30.2843 42.6552 30.8938C45.1018 31.1029 47.528 30.8284 49.8663 30.0779C52.1486 29.3455 54.2389 28.1961 56.0792 26.6617C57.5711 25.4177 58.8467 23.9587 59.8716 22.3246C60.5795 21.1945 61.153 19.9897 61.5768 18.7429L61.8355 17.9817L61.3207 17.3642C61.3207 17.3641 62.7139 19.035 62.7139 19.035L62.6604 19.6261C62.201 24.694 59.7956 29.2797 55.8872 32.5384C51.9791 35.7969 47.0351 37.3388 41.9677 36.8794C37.6119 36.4847 33.4943 34.586 30.3733 31.5333C27.2969 28.5242 25.311 24.5282 24.7814 20.2813Z" fill="#EEBF00"/>
<path d="M61.5768 18.7429C61.153 19.9897 60.5795 21.1945 59.8715 22.3246C58.8467 23.9587 57.571 25.4176 56.0801 26.6609C54.2389 28.1961 52.1485 29.3455 49.8663 30.0779C47.528 30.8283 45.1018 31.1028 42.6551 30.8938C35.5218 30.2842 29.3387 25.572 26.9028 18.8889L26.5579 17.9427L30.4778 14.6743L31.3955 15.7748C37.6085 23.2264 48.7254 24.234 56.177 18.021C56.8769 17.4374 57.5345 16.7978 58.1316 16.1198L59.2367 14.8648L61.8355 17.9817L61.5768 18.7429Z" fill="#FFCD00"/>
</g>
<path d="M8.8504 52.7941C10.6461 52.7941 12.1064 53.169 13.2312 53.9189C14.356 54.6688 15.1848 55.6554 15.7176 56.8789C16.2504 58.0826 16.5168 59.385 16.5168 60.7861C16.5168 62.1872 16.2011 63.4698 15.5696 64.6341C14.9381 65.7984 14.0699 66.7357 12.9648 67.4461C11.8795 68.1368 10.6363 68.4821 9.2352 68.4821C7.65653 68.4821 6.4232 68.1466 5.5352 67.4757C5.39707 67.9493 5.07147 68.1861 4.5584 68.1861H3.0784C2.80213 68.1861 2.56533 68.0874 2.368 67.8901C2.17067 67.6928 2.072 67.456 2.072 67.1797V46.6965C2.072 46.4202 2.17067 46.1834 2.368 45.9861C2.56533 45.7888 2.80213 45.6901 3.0784 45.6901H4.5584C4.83467 45.6901 5.07147 45.7888 5.2688 45.9861C5.46613 46.1834 5.5648 46.4202 5.5648 46.6965V54.0373C5.9792 53.6426 6.46267 53.3368 7.0152 53.1197C7.56773 52.9026 8.17947 52.7941 8.8504 52.7941ZM8.8504 54.7773C8.3176 54.7773 7.80453 55.0437 7.3112 55.5765C6.81787 56.0896 6.40347 56.7901 6.068 57.6781C5.75227 58.5661 5.5944 59.5528 5.5944 60.6381C5.5944 62.5917 5.92 64.0914 6.5712 65.1373C7.24213 66.1832 8.13013 66.7061 9.2352 66.7061C9.8272 66.7061 10.4389 66.489 11.0704 66.0549C11.7019 65.601 12.2347 64.94 12.6688 64.0717C13.1029 63.1837 13.32 62.0885 13.32 60.7861C13.32 59.6613 13.1325 58.645 12.7576 57.7373C12.4024 56.8296 11.8893 56.1093 11.2184 55.5765C10.5475 55.0437 9.75813 54.7773 8.8504 54.7773ZM24.0616 68.4821C22.7986 68.4821 21.7232 68.1565 20.8352 67.5053C19.9669 66.8344 19.296 65.9168 18.8224 64.7525C18.3685 63.5882 18.1416 62.2562 18.1416 60.7565C18.1416 59.2765 18.408 57.9346 18.9408 56.7309C19.4933 55.5272 20.253 54.5701 21.22 53.8597C22.1869 53.1493 23.3216 52.7941 24.624 52.7941C26.321 52.7941 27.732 53.1592 28.8568 53.8893C29.9816 54.5997 30.8202 55.5272 31.3728 56.6717C31.9253 57.8162 32.2016 59.0298 32.2016 60.3125C32.2016 60.3914 32.2016 60.4704 32.2016 60.5493C32.3397 61.8714 32.4976 63.0752 32.6752 64.1605C32.8528 65.2261 33.0304 66.1141 33.208 66.8245C33.2277 66.8837 33.2376 66.9626 33.2376 67.0613C33.2376 67.6533 32.9317 67.9986 32.32 68.0973L30.6328 68.3045C30.0802 68.3637 29.7349 68.1368 29.5968 67.6237C29.5178 67.308 29.4488 66.9824 29.3896 66.6469C28.7186 67.2192 27.9392 67.673 27.0512 68.0085C26.1632 68.3242 25.1666 68.4821 24.0616 68.4821ZM24.0616 66.7061C25.0285 66.7061 25.8277 66.3904 26.4592 65.7589C27.0906 65.1077 27.5642 64.2888 27.88 63.3021C28.2154 62.3154 28.3832 61.2992 28.3832 60.2533C28.3832 60.2336 28.3832 60.1941 28.3832 60.1349C28.3634 60.0362 28.3536 59.9277 28.3536 59.8093C28.3536 59.7106 28.3536 59.6218 28.3536 59.5429C28.2944 58.6746 28.1168 57.8656 27.8208 57.1157C27.5248 56.3461 27.1104 55.7344 26.5776 55.2805C26.0448 54.8069 25.3936 54.5701 24.624 54.5701C24.2096 54.5701 23.7952 54.876 23.3808 55.4877C22.9664 56.0797 22.621 56.8493 22.3448 57.7965C22.0685 58.7437 21.9304 59.7304 21.9304 60.7565C21.9304 61.7826 22.0389 62.7496 22.256 63.6573C22.473 64.565 22.7493 65.305 23.0848 65.8773C23.4202 66.4298 23.7458 66.7061 24.0616 66.7061ZM49.0643 67.1205C49.0643 67.4362 48.9656 67.6928 48.7683 67.8901C48.571 68.0874 48.3342 68.1861 48.0579 68.1861H46.4003C46.124 68.1861 45.8872 68.0874 45.6899 67.8901C45.4926 67.673 45.3939 67.4066 45.3939 67.0909C45.3939 65.6306 45.3939 64.5058 45.3939 63.7165C45.3939 62.9074 45.384 62.2957 45.3643 61.8813C45.3643 61.4472 45.3643 61.0821 45.3643 60.7861C45.3643 58.8128 45.1472 57.2834 44.7131 56.1981C44.2987 55.1128 43.608 54.5701 42.6411 54.5701C41.4176 54.5701 40.5198 54.8365 39.9475 55.3693C39.3752 55.8824 39.0891 56.721 39.0891 57.8853V67.1797C39.0891 67.456 38.9904 67.6928 38.7931 67.8901C38.5958 68.0874 38.359 68.1861 38.0827 68.1861H36.3067C36.0304 68.1861 35.7936 68.0874 35.5963 67.8901C35.399 67.6928 35.3003 67.456 35.3003 67.1797V53.8005C35.3003 53.5242 35.399 53.2874 35.5963 53.0901C35.7936 52.8928 36.0304 52.7941 36.3067 52.7941H38.0827C38.5168 52.7941 38.8227 52.9816 39.0003 53.3565C40.0856 52.9816 41.2992 52.7941 42.6411 52.7941C44.0422 52.7941 45.1571 53.0112 45.9859 53.4453C46.8147 53.8794 47.4462 54.4813 47.8803 55.2509C48.3144 56.0008 48.6104 56.8592 48.7683 57.8261C48.9262 58.793 49.015 59.8093 49.0347 60.8749C49.0544 61.1709 49.0643 61.536 49.0643 61.9701C49.0643 62.3845 49.0643 62.9864 49.0643 63.7757C49.0643 64.565 49.0643 65.68 49.0643 67.1205ZM56.7834 68.4821C55.5205 68.4821 54.445 68.1565 53.557 67.5053C52.6888 66.8344 52.0178 65.9168 51.5442 64.7525C51.0904 63.5882 50.8634 62.2562 50.8634 60.7565C50.8634 59.2765 51.1298 57.9346 51.6626 56.7309C52.2152 55.5272 52.9749 54.5701 53.9418 53.8597C54.9088 53.1493 56.0434 52.7941 57.3458 52.7941C59.0429 52.7941 60.4538 53.1592 61.5786 53.8893C62.7034 54.5997 63.5421 55.5272 64.0946 56.6717C64.6472 57.8162 64.9234 59.0298 64.9234 60.3125C64.9234 60.3914 64.9234 60.4704 64.9234 60.5493C65.0616 61.8714 65.2194 63.0752 65.397 64.1605C65.5746 65.2261 65.7522 66.1141 65.9298 66.8245C65.9496 66.8837 65.9594 66.9626 65.9594 67.0613C65.9594 67.6533 65.6536 67.9986 65.0418 68.0973L63.3546 68.3045C62.8021 68.3637 62.4568 68.1368 62.3186 67.6237C62.2397 67.308 62.1706 66.9824 62.1114 66.6469C61.4405 67.2192 60.661 67.673 59.773 68.0085C58.885 68.3242 57.8885 68.4821 56.7834 68.4821ZM56.7834 66.7061C57.7504 66.7061 58.5496 66.3904 59.181 65.7589C59.8125 65.1077 60.2861 64.2888 60.6018 63.3021C60.9373 62.3154 61.105 61.2992 61.105 60.2533C61.105 60.2336 61.105 60.1941 61.105 60.1349C61.0853 60.0362 61.0754 59.9277 61.0754 59.8093C61.0754 59.7106 61.0754 59.6218 61.0754 59.5429C61.0162 58.6746 60.8386 57.8656 60.5426 57.1157C60.2466 56.3461 59.8322 55.7344 59.2994 55.2805C58.7666 54.8069 58.1154 54.5701 57.3458 54.5701C56.9314 54.5701 56.517 54.876 56.1026 55.4877C55.6882 56.0797 55.3429 56.8493 55.0666 57.7965C54.7904 58.7437 54.6522 59.7304 54.6522 60.7565C54.6522 61.7826 54.7608 62.7496 54.9778 63.6573C55.1949 64.565 55.4712 65.305 55.8066 65.8773C56.1421 66.4298 56.4677 66.7061 56.7834 66.7061ZM81.7862 67.1205C81.7862 67.4362 81.6875 67.6928 81.4902 67.8901C81.2929 68.0874 81.0561 68.1861 80.7798 68.1861H79.1222C78.8459 68.1861 78.6091 68.0874 78.4118 67.8901C78.2145 67.673 78.1158 67.4066 78.1158 67.0909C78.1158 65.6306 78.1158 64.5058 78.1158 63.7165C78.1158 62.9074 78.1059 62.2957 78.0862 61.8813C78.0862 61.4472 78.0862 61.0821 78.0862 60.7861C78.0862 58.8128 77.8691 57.2834 77.435 56.1981C77.0206 55.1128 76.3299 54.5701 75.363 54.5701C74.1395 54.5701 73.2417 54.8365 72.6694 55.3693C72.0971 55.8824 71.811 56.721 71.811 57.8853V67.1797C71.811 67.456 71.7123 67.6928 71.515 67.8901C71.3177 68.0874 71.0809 68.1861 70.8046 68.1861H69.0286C68.7523 68.1861 68.5155 68.0874 68.3182 67.8901C68.1209 67.6928 68.0222 67.456 68.0222 67.1797V53.8005C68.0222 53.5242 68.1209 53.2874 68.3182 53.0901C68.5155 52.8928 68.7523 52.7941 69.0286 52.7941H70.8046C71.2387 52.7941 71.5446 52.9816 71.7222 53.3565C72.8075 52.9816 74.0211 52.7941 75.363 52.7941C76.7641 52.7941 77.879 53.0112 78.7078 53.4453C79.5366 53.8794 80.1681 54.4813 80.6022 55.2509C81.0363 56.0008 81.3323 56.8592 81.4902 57.8261C81.6481 58.793 81.7369 59.8093 81.7566 60.8749C81.7763 61.1709 81.7862 61.536 81.7862 61.9701C81.7862 62.3845 81.7862 62.9864 81.7862 63.7757C81.7862 64.565 81.7862 65.68 81.7862 67.1205ZM96.3836 66.2029C95.7719 66.8146 94.9924 67.3474 94.0452 67.8013C93.1177 68.2552 92.1015 68.4821 90.9964 68.4821C88.5495 68.4821 86.6452 67.7816 85.2836 66.3805C83.9417 64.9597 83.2708 63.0554 83.2708 60.6677C83.2708 59.168 83.5767 57.8261 84.1884 56.6421C84.8199 55.4581 85.6783 54.5208 86.7636 53.8301C87.8687 53.1394 89.1415 52.7941 90.582 52.7941C92.062 52.7941 93.3545 53.1098 94.4596 53.7413C95.5844 54.3728 96.4625 55.241 97.094 56.3461C97.7255 57.4512 98.0412 58.724 98.0412 60.1645C98.0412 60.4408 97.9425 60.6677 97.7452 60.8453C97.5676 61.0229 97.3407 61.1117 97.0644 61.1117H86.4676C86.5465 62.868 87.0103 64.2394 87.8588 65.2261C88.7073 66.2128 89.7532 66.7061 90.9964 66.7061C91.6279 66.7061 92.1311 66.5384 92.506 66.2029C92.8809 65.8674 93.2559 65.3938 93.6308 64.7821C93.8479 64.348 94.1833 64.1802 94.6372 64.2789L95.7324 64.5453C96.3441 64.7032 96.65 65.0485 96.65 65.5813C96.65 65.8181 96.5612 66.0253 96.3836 66.2029ZM90.582 54.5701C90.0097 54.5701 89.4473 54.7872 88.8948 55.2213C88.3423 55.6357 87.8588 56.1981 87.4444 56.9085C87.03 57.6189 86.7439 58.428 86.586 59.3357H94.2228C94.1044 57.9346 93.7196 56.7901 93.0684 55.9021C92.4172 55.0141 91.5884 54.5701 90.582 54.5701Z" fill="black"/>
</svg>
